<svg width="50" height="50" viewBox="0 0 50 50" fill="none" xmlns="http://www.w3.org/2000/svg">
<g clip-path="url(#clip0_138_23)">
<rect width="50" height="50" fill="#F7FCF9"/>
<path d="M45.9705 23.6088L42.2963 25.8383L42.2329 25.8819C42.1398 25.9543 42.0675 26.0502 42.0235 26.1597C41.9795 26.2691 41.9654 26.3883 41.9825 26.5051C41.9997 26.6218 42.0475 26.7319 42.1211 26.8241C42.1947 26.9163 42.2915 26.9874 42.4015 27.0299L46.4099 28.5869L47.3964 32.7707L47.417 32.8416C47.4567 32.9529 47.5252 33.0516 47.6156 33.1277C47.706 33.2038 47.815 33.2545 47.9314 33.2747C48.0478 33.2948 48.1675 33.2837 48.2782 33.2423C48.3889 33.201 48.4866 33.131 48.5613 33.0395L51.2815 29.7122L55.5566 30.0702L55.6299 30.0724C55.7481 30.0693 55.8634 30.0348 55.9639 29.9724C56.0644 29.9101 56.1465 29.8221 56.2018 29.7176C56.2571 29.613 56.2836 29.4956 56.2785 29.3775C56.2735 29.2593 56.2371 29.1446 56.1731 29.0452L53.8482 25.4295L55.5136 21.4635L55.5393 21.391C55.5719 21.2778 55.574 21.1579 55.5452 21.0436C55.5164 20.9293 55.4578 20.8247 55.3755 20.7405C55.2931 20.6562 55.1899 20.5952 55.0763 20.5638C54.9627 20.5324 54.8428 20.5317 54.7289 20.5617L50.5724 21.6554L47.3166 18.8513C47.2224 18.77 47.1072 18.7168 46.9843 18.6975C46.8613 18.6783 46.7354 18.6939 46.6208 18.7425C46.5062 18.7912 46.4076 18.8709 46.336 18.9727C46.2644 19.0745 46.2227 19.1943 46.2157 19.3186L45.9705 23.6088Z" fill="#EBF8F0"/>
<path d="M21.9705 47.6088L18.2963 49.8383L18.2329 49.8819C18.1398 49.9543 18.0675 50.0502 18.0235 50.1597C17.9795 50.2691 17.9654 50.3883 17.9825 50.5051C17.9997 50.6218 18.0475 50.7319 18.1211 50.8241C18.1947 50.9163 18.2915 50.9874 18.4015 51.0299L22.4099 52.5869L23.3964 56.7707L23.417 56.8416C23.4567 56.9529 23.5252 57.0516 23.6156 57.1277C23.706 57.2038 23.815 57.2545 23.9314 57.2747C24.0478 57.2948 24.1675 57.2837 24.2782 57.2423C24.3889 57.201 24.4866 57.131 24.5613 57.0395L27.2815 53.7122L31.5566 54.0702L31.6299 54.0724C31.7481 54.0693 31.8634 54.0348 31.9639 53.9724C32.0644 53.9101 32.1465 53.8221 32.2018 53.7176C32.2571 53.613 32.2836 53.4956 32.2785 53.3775C32.2735 53.2593 32.2371 53.1446 32.1731 53.0452L29.8482 49.4295L31.5136 45.4635L31.5393 45.391C31.5719 45.2778 31.574 45.1579 31.5452 45.0436C31.5164 44.9293 31.4578 44.8247 31.3755 44.7405C31.2931 44.6562 31.1899 44.5952 31.0763 44.5638C30.9627 44.5324 30.8428 44.5317 30.7289 44.5617L26.5724 45.6554L23.3166 42.8513C23.2224 42.77 23.1072 42.7168 22.9843 42.6975C22.8613 42.6783 22.7354 42.6939 22.6208 42.7425C22.5062 42.7912 22.4076 42.8709 22.336 42.9727C22.2644 43.0745 22.2227 43.1943 22.2157 43.3186L21.9705 47.6088Z" fill="#EBF8F0"/>
<path d="M-3.02948 23.6088L-6.70375 25.8383L-6.7671 25.8819C-6.86024 25.9543 -6.9325 26.0502 -6.97649 26.1597C-7.02047 26.2691 -7.03461 26.3883 -7.01746 26.5051C-7.00031 26.6218 -6.95249 26.7319 -6.87888 26.8241C-6.80526 26.9163 -6.70849 26.9874 -6.59845 27.0299L-2.59014 28.5869L-1.60364 32.7707L-1.58296 32.8416C-1.5433 32.9529 -1.47478 33.0516 -1.3844 33.1277C-1.29402 33.2038 -1.18504 33.2545 -1.06861 33.2747C-0.952188 33.2948 -0.832501 33.2837 -0.721809 33.2423C-0.611117 33.201 -0.513396 33.131 -0.438652 33.0395L2.28149 29.7122L6.55657 30.0702L6.62992 30.0724C6.74815 30.0693 6.86343 30.0348 6.96392 29.9724C7.06442 29.9101 7.14652 29.8221 7.20181 29.7176C7.25709 29.613 7.28356 29.4956 7.27851 29.3775C7.27346 29.2593 7.23707 29.1446 7.17306 29.0452L4.84815 25.4295L6.51357 21.4635L6.53929 21.391C6.57192 21.2778 6.57395 21.1579 6.54518 21.0436C6.5164 20.9293 6.45784 20.8247 6.37547 20.7405C6.2931 20.6562 6.18987 20.5952 6.07628 20.5638C5.96269 20.5324 5.84281 20.5317 5.72885 20.5617L1.57243 21.6554L-1.68338 18.8513C-1.77764 18.77 -1.89278 18.7168 -2.01575 18.6975C-2.13872 18.6783 -2.26461 18.6939 -2.37918 18.7425C-2.49375 18.7912 -2.59242 18.8709 -2.66402 18.9727C-2.73561 19.0745 -2.77728 19.1943 -2.7843 19.3186L-3.02948 23.6088Z" fill="#EBF8F0"/>
<path d="M21.9705 -1.3912L18.2963 0.83835L18.2329 0.881899C18.1398 0.954326 18.0675 1.05018 18.0235 1.15966C17.9795 1.26915 17.9654 1.38834 17.9825 1.50508C17.9997 1.62182 18.0475 1.73192 18.1211 1.82412C18.1947 1.91633 18.2915 1.98736 18.4015 2.02993L22.4099 3.58686L23.3964 7.77066L23.417 7.84156C23.4567 7.95285 23.5252 8.05161 23.6156 8.12772C23.706 8.20383 23.815 8.25455 23.9314 8.27469C24.0478 8.29483 24.1675 8.28367 24.2782 8.24234C24.3889 8.20102 24.4866 8.13101 24.5613 8.0395L27.2815 4.71215L31.5566 5.07021L31.6299 5.07239C31.7481 5.06929 31.8634 5.0348 31.9639 4.97244C32.0644 4.91009 32.1465 4.82213 32.2018 4.71757C32.2571 4.61302 32.2836 4.49564 32.2785 4.37748C32.2735 4.25932 32.2371 4.14463 32.1731 4.04517L29.8482 0.429494L31.5136 -3.53651L31.5393 -3.60899C31.5719 -3.72223 31.574 -3.8421 31.5452 -3.95638C31.5164 -4.07066 31.4578 -4.17527 31.3755 -4.25955C31.2931 -4.34383 31.1899 -4.40477 31.0763 -4.43616C30.9627 -4.46755 30.8428 -4.46827 30.7289 -4.43825L26.5724 -3.3446L23.3166 -6.1487C23.2224 -6.22997 23.1072 -6.28323 22.9843 -6.30245C22.8613 -6.32167 22.7354 -6.30609 22.6208 -6.25745C22.5062 -6.20882 22.4076 -6.12909 22.336 -6.02728C22.2644 -5.92547 22.2227 -5.80565 22.2157 -5.68139L21.9705 -1.3912Z" fill="#EBF8F0"/>
</g>
<defs>
<clipPath id="clip0_138_23">
<rect width="50" height="50" fill="white"/>
</clipPath>
</defs>
</svg>
